<svg id="visual" viewBox="0 0 960 540" width="960" height="540" xmlns="http://www.w3.org/2000/svg" xmlns:xlink="http://www.w3.org/1999/xlink" version="1.1"><rect x="0" y="0" width="960" height="540" fill="#3f44d1"></rect><defs><linearGradient id="grad1_0" x1="43.8%" y1="100%" x2="100%" y2="0%"><stop offset="14.444444444444446%" stop-color="#ff8ce0" stop-opacity="1"></stop><stop offset="85.55555555555554%" stop-color="#ff8ce0" stop-opacity="1"></stop></linearGradient></defs><defs><linearGradient id="grad1_1" x1="43.8%" y1="100%" x2="100%" y2="0%"><stop offset="14.444444444444446%" stop-color="#ff8ce0" stop-opacity="1"></stop><stop offset="85.55555555555554%" stop-color="#e579dc" stop-opacity="1"></stop></linearGradient></defs><defs><linearGradient id="grad1_2" x1="43.8%" y1="100%" x2="100%" y2="0%"><stop offset="14.444444444444446%" stop-color="#c767d9" stop-opacity="1"></stop><stop offset="85.55555555555554%" stop-color="#e579dc" stop-opacity="1"></stop></linearGradient></defs><defs><linearGradient id="grad1_3" x1="43.8%" y1="100%" x2="100%" y2="0%"><stop offset="14.444444444444446%" stop-color="#c767d9" stop-opacity="1"></stop><stop offset="85.55555555555554%" stop-color="#a459d7" stop-opacity="1"></stop></linearGradient></defs><defs><linearGradient id="grad1_4" x1="43.8%" y1="100%" x2="100%" y2="0%"><stop offset="14.444444444444446%" stop-color="#7b4dd4" stop-opacity="1"></stop><stop offset="85.55555555555554%" stop-color="#a459d7" stop-opacity="1"></stop></linearGradient></defs><defs><linearGradient id="grad1_5" x1="43.8%" y1="100%" x2="100%" y2="0%"><stop offset="14.444444444444446%" stop-color="#7b4dd4" stop-opacity="1"></stop><stop offset="85.55555555555554%" stop-color="#3f44d1" stop-opacity="1"></stop></linearGradient></defs><defs><linearGradient id="grad2_0" x1="0%" y1="100%" x2="56.3%" y2="0%"><stop offset="14.444444444444446%" stop-color="#ff8ce0" stop-opacity="1"></stop><stop offset="85.55555555555554%" stop-color="#ff8ce0" stop-opacity="1"></stop></linearGradient></defs><defs><linearGradient id="grad2_1" x1="0%" y1="100%" x2="56.3%" y2="0%"><stop offset="14.444444444444446%" stop-color="#e579dc" stop-opacity="1"></stop><stop offset="85.55555555555554%" stop-color="#ff8ce0" stop-opacity="1"></stop></linearGradient></defs><defs><linearGradient id="grad2_2" x1="0%" y1="100%" x2="56.3%" y2="0%"><stop offset="14.444444444444446%" stop-color="#e579dc" stop-opacity="1"></stop><stop offset="85.55555555555554%" stop-color="#c767d9" stop-opacity="1"></stop></linearGradient></defs><defs><linearGradient id="grad2_3" x1="0%" y1="100%" x2="56.3%" y2="0%"><stop offset="14.444444444444446%" stop-color="#a459d7" stop-opacity="1"></stop><stop offset="85.55555555555554%" stop-color="#c767d9" stop-opacity="1"></stop></linearGradient></defs><defs><linearGradient id="grad2_4" x1="0%" y1="100%" x2="56.3%" y2="0%"><stop offset="14.444444444444446%" stop-color="#a459d7" stop-opacity="1"></stop><stop offset="85.55555555555554%" stop-color="#7b4dd4" stop-opacity="1"></stop></linearGradient></defs><defs><linearGradient id="grad2_5" x1="0%" y1="100%" x2="56.3%" y2="0%"><stop offset="14.444444444444446%" stop-color="#3f44d1" stop-opacity="1"></stop><stop offset="85.55555555555554%" stop-color="#7b4dd4" stop-opacity="1"></stop></linearGradient></defs><g transform="translate(960, 540)"><path d="M-459 0C-392.6 -48.4 -326.1 -96.8 -296.2 -171C-266.2 -245.2 -272.8 -345.2 -229.5 -397.5C-186.2 -449.8 -93.1 -454.4 0 -459L0 0Z" fill="#6148d3"></path><path d="M-382.5 0C-327.1 -40.3 -271.8 -80.7 -246.8 -142.5C-221.9 -204.3 -227.3 -287.7 -191.3 -331.3C-155.2 -374.8 -77.6 -378.7 0 -382.5L0 0Z" fill="#9152d5"></path><path d="M-306 0C-261.7 -32.3 -217.4 -64.5 -197.5 -114C-177.5 -163.5 -181.9 -230.1 -153 -265C-124.1 -299.9 -62.1 -302.9 0 -306L0 0Z" fill="#b660d8"></path><path d="M-229.5 0C-196.3 -24.2 -163.1 -48.4 -148.1 -85.5C-133.1 -122.6 -136.4 -172.6 -114.8 -198.8C-93.1 -224.9 -46.6 -227.2 0 -229.5L0 0Z" fill="#d670db"></path><path d="M-153 0C-130.9 -16.1 -108.7 -32.3 -98.7 -57C-88.7 -81.7 -90.9 -115.1 -76.5 -132.5C-62.1 -149.9 -31 -151.5 0 -153L0 0Z" fill="#f282de"></path><path d="M-76.5 0C-65.4 -8.1 -54.4 -16.1 -49.4 -28.5C-44.4 -40.9 -45.5 -57.5 -38.3 -66.3C-31 -75 -15.5 -75.7 0 -76.5L0 0Z" fill="#ff8ce0"></path></g><g transform="translate(0, 0)"><path d="M459 0C372.7 36.9 286.4 73.9 258.9 149.5C231.5 225.1 262.9 339.5 229.5 397.5C196.1 455.5 98.1 457.3 0 459L0 0Z" fill="#6148d3"></path><path d="M382.5 0C310.6 30.8 238.7 61.6 215.8 124.6C192.9 187.6 219 282.9 191.3 331.3C163.5 379.6 81.7 381.1 0 382.5L0 0Z" fill="#9152d5"></path><path d="M306 0C248.5 24.6 190.9 49.2 172.6 99.7C154.3 150.1 175.2 226.3 153 265C130.8 303.7 65.4 304.8 0 306L0 0Z" fill="#b660d8"></path><path d="M229.5 0C186.4 18.5 143.2 36.9 129.5 74.7C115.7 112.6 131.4 169.7 114.8 198.8C98.1 227.8 49 228.6 0 229.5L0 0Z" fill="#d670db"></path><path d="M153 0C124.2 12.3 95.5 24.6 86.3 49.8C77.2 75 87.6 113.2 76.5 132.5C65.4 151.8 32.7 152.4 0 153L0 0Z" fill="#f282de"></path><path d="M76.5 0C62.1 6.2 47.7 12.3 43.2 24.9C38.6 37.5 43.8 56.6 38.3 66.3C32.7 75.9 16.3 76.2 0 76.5L0 0Z" fill="#ff8ce0"></path></g></svg>