<svg id="visual" viewBox="0 0 960 540" width="960" height="540" xmlns="http://www.w3.org/2000/svg" xmlns:xlink="http://www.w3.org/1999/xlink" version="1.1"><path d="M0 87L14.5 79C29 71 58 55 87.2 50.5C116.3 46 145.7 53 174.8 52C204 51 233 42 262 38.5C291 35 320 37 349 43.3C378 49.7 407 60.3 436.2 63C465.3 65.7 494.7 60.3 523.8 55C553 49.7 582 44.3 611 45.2C640 46 669 53 698 49.3C727 45.7 756 31.3 785.2 27.8C814.3 24.3 843.7 31.7 872.8 36.2C902 40.7 931 42.3 945.5 43.2L960 44L960 0L945.5 0C931 0 902 0 872.8 0C843.7 0 814.3 0 785.2 0C756 0 727 0 698 0C669 0 640 0 611 0C582 0 553 0 523.8 0C494.7 0 465.3 0 436.2 0C407 0 378 0 349 0C320 0 291 0 262 0C233 0 204 0 174.8 0C145.7 0 116.3 0 87.2 0C58 0 29 0 14.5 0L0 0Z" fill="#62cae4"></path><path d="M0 163L14.5 149.5C29 136 58 109 87.2 97.3C116.3 85.7 145.7 89.3 174.8 87.5C204 85.7 233 78.3 262 78.3C291 78.3 320 85.7 349 96.5C378 107.3 407 121.7 436.2 131.5C465.3 141.3 494.7 146.7 523.8 141.3C553 136 582 120 611 119.2C640 118.3 669 132.7 698 128.2C727 123.7 756 100.3 785.2 93.2C814.3 86 843.7 95 872.8 92.2C902 89.3 931 74.7 945.5 67.3L960 60L960 42L945.5 41.2C931 40.3 902 38.7 872.8 34.2C843.7 29.7 814.3 22.3 785.2 25.8C756 29.3 727 43.7 698 47.3C669 51 640 44 611 43.2C582 42.3 553 47.7 523.8 53C494.7 58.3 465.3 63.7 436.2 61C407 58.3 378 47.7 349 41.3C320 35 291 33 262 36.5C233 40 204 49 174.8 50C145.7 51 116.3 44 87.2 48.5C58 53 29 69 14.5 77L0 85Z" fill="#4ac2df"></path><path d="M0 282L14.5 268.5C29 255 58 228 87.2 220.8C116.3 213.7 145.7 226.3 174.8 224.5C204 222.7 233 206.3 262 192.8C291 179.3 320 168.7 349 171.3C378 174 407 190 436.2 201.7C465.3 213.3 494.7 220.7 523.8 217.2C553 213.7 582 199.3 611 189.3C640 179.3 669 173.7 698 165.5C727 157.3 756 146.7 785.2 155.7C814.3 164.7 843.7 193.3 872.8 195.2C902 197 931 172 945.5 159.5L960 147L960 58L945.5 65.3C931 72.7 902 87.3 872.8 90.2C843.7 93 814.3 84 785.2 91.2C756 98.3 727 121.7 698 126.2C669 130.7 640 116.3 611 117.2C582 118 553 134 523.8 139.3C494.7 144.7 465.3 139.3 436.2 129.5C407 119.7 378 105.3 349 94.5C320 83.7 291 76.3 262 76.3C233 76.3 204 83.7 174.8 85.5C145.7 87.3 116.3 83.7 87.2 95.3C58 107 29 134 14.5 147.5L0 161Z" fill="#28b9da"></path><path d="M0 336L14.5 327C29 318 58 300 87.2 299C116.3 298 145.7 314 174.8 333.8C204 353.7 233 377.3 262 372C291 366.7 320 332.3 349 330.5C378 328.7 407 359.3 436.2 354C465.3 348.7 494.7 307.3 523.8 297.3C553 287.3 582 308.7 611 314C640 319.3 669 308.7 698 306C727 303.3 756 308.7 785.2 322.2C814.3 335.7 843.7 357.3 872.8 346.5C902 335.7 931 292.3 945.5 270.7L960 249L960 145L945.5 157.5C931 170 902 195 872.8 193.2C843.7 191.3 814.3 162.7 785.2 153.7C756 144.7 727 155.3 698 163.5C669 171.7 640 177.3 611 187.3C582 197.3 553 211.7 523.8 215.2C494.7 218.7 465.3 211.3 436.2 199.7C407 188 378 172 349 169.3C320 166.7 291 177.3 262 190.8C233 204.3 204 220.7 174.8 222.5C145.7 224.3 116.3 211.7 87.2 218.8C58 226 29 253 14.5 266.5L0 280Z" fill="#00abcc"></path><path d="M0 525L14.5 524C29 523 58 521 87.2 513.8C116.3 506.7 145.7 494.3 174.8 486.3C204 478.3 233 474.7 262 471.8C291 469 320 467 349 472.3C378 477.7 407 490.3 436.2 494.8C465.3 499.3 494.7 495.7 523.8 495.7C553 495.7 582 499.3 611 499.3C640 499.3 669 495.7 698 493C727 490.3 756 488.7 785.2 483.3C814.3 478 843.7 469 872.8 471.7C902 474.3 931 488.7 945.5 495.8L960 503L960 247L945.5 268.7C931 290.3 902 333.7 872.8 344.5C843.7 355.3 814.3 333.7 785.2 320.2C756 306.7 727 301.3 698 304C669 306.7 640 317.3 611 312C582 306.7 553 285.3 523.8 295.3C494.7 305.3 465.3 346.7 436.2 352C407 357.3 378 326.7 349 328.5C320 330.3 291 364.7 262 370C233 375.3 204 351.7 174.8 331.8C145.7 312 116.3 296 87.2 297C58 298 29 316 14.5 325L0 334Z" fill="#0097b4"></path><path d="M0 541L14.5 541C29 541 58 541 87.2 541C116.3 541 145.7 541 174.8 541C204 541 233 541 262 541C291 541 320 541 349 541C378 541 407 541 436.2 541C465.3 541 494.7 541 523.8 541C553 541 582 541 611 541C640 541 669 541 698 541C727 541 756 541 785.2 541C814.3 541 843.7 541 872.8 541C902 541 931 541 945.5 541L960 541L960 501L945.5 493.8C931 486.7 902 472.3 872.8 469.7C843.7 467 814.3 476 785.2 481.3C756 486.7 727 488.3 698 491C669 493.7 640 497.3 611 497.3C582 497.3 553 493.7 523.8 493.7C494.7 493.7 465.3 497.3 436.2 492.8C407 488.3 378 475.7 349 470.3C320 465 291 467 262 469.8C233 472.7 204 476.3 174.8 484.3C145.7 492.3 116.3 504.7 87.2 511.8C58 519 29 521 14.5 522L0 523Z" fill="#00849d"></path></svg>