<svg id="visual" viewBox="0 0 960 540" width="960" height="540" xmlns="http://www.w3.org/2000/svg" xmlns:xlink="http://www.w3.org/1999/xlink" version="1.1"><rect x="0" y="0" width="960" height="540" fill="#3f44d1"></rect><path d="M0 483L80 470.7C160 458.3 320 433.7 480 422.2C640 410.7 800 412.3 880 413.2L960 414L960 0L880 0C800 0 640 0 480 0C320 0 160 0 80 0L0 0Z" fill="#3f44d1"></path><path d="M0 365L80 371C160 377 320 389 480 387.5C640 386 800 371 880 363.5L960 356L960 0L880 0C800 0 640 0 480 0C320 0 160 0 80 0L0 0Z" fill="#1e5cdd"></path><path d="M0 319L80 325.2C160 331.3 320 343.7 480 347C640 350.3 800 344.7 880 341.8L960 339L960 0L880 0C800 0 640 0 480 0C320 0 160 0 80 0L0 0Z" fill="#0071e6"></path><path d="M0 269L80 274.7C160 280.3 320 291.7 480 299.3C640 307 800 311 880 313L960 315L960 0L880 0C800 0 640 0 480 0C320 0 160 0 80 0L0 0Z" fill="#0084eb"></path><path d="M0 268L80 265.8C160 263.7 320 259.3 480 251.7C640 244 800 233 880 227.5L960 222L960 0L880 0C800 0 640 0 480 0C320 0 160 0 80 0L0 0Z" fill="#0096ee"></path><path d="M0 182L80 180C160 178 320 174 480 175.2C640 176.3 800 182.7 880 185.8L960 189L960 0L880 0C800 0 640 0 480 0C320 0 160 0 80 0L0 0Z" fill="#1fa7ef"></path><path d="M0 155L80 158C160 161 320 167 480 168.7C640 170.3 800 167.7 880 166.3L960 165L960 0L880 0C800 0 640 0 480 0C320 0 160 0 80 0L0 0Z" fill="#43b6ed"></path><path d="M0 91L80 98.7C160 106.3 320 121.7 480 120.8C640 120 800 103 880 94.5L960 86L960 0L880 0C800 0 640 0 480 0C320 0 160 0 80 0L0 0Z" fill="#65c5eb"></path><path d="M0 20L80 26.5C160 33 320 46 480 57C640 68 800 77 880 81.5L960 86L960 0L880 0C800 0 640 0 480 0C320 0 160 0 80 0L0 0Z" fill="#86d2ea"></path></svg>