<svg id="visual" viewBox="0 0 960 540" width="960" height="540" xmlns="http://www.w3.org/2000/svg" xmlns:xlink="http://www.w3.org/1999/xlink" version="1.1"><rect x="0" y="0" width="960" height="540" fill="#ff8ce0"></rect><path d="M0 413L87 413L87 370L175 370L175 362L262 362L262 395L349 395L349 359L436 359L436 370L524 370L524 400L611 400L611 370L698 370L698 405L785 405L785 417L873 417L873 374L960 374L960 371L960 0L960 0L873 0L873 0L785 0L785 0L698 0L698 0L611 0L611 0L524 0L524 0L436 0L436 0L349 0L349 0L262 0L262 0L175 0L175 0L87 0L87 0L0 0Z" fill="#ff8ce0"></path><path d="M0 308L87 308L87 331L175 331L175 353L262 353L262 325L349 325L349 350L436 350L436 349L524 349L524 349L611 349L611 317L698 317L698 308L785 308L785 345L873 345L873 321L960 321L960 336L960 0L960 0L873 0L873 0L785 0L785 0L698 0L698 0L611 0L611 0L524 0L524 0L436 0L436 0L349 0L349 0L262 0L262 0L175 0L175 0L87 0L87 0L0 0Z" fill="#e97cdd"></path><path d="M0 284L87 284L87 288L175 288L175 278L262 278L262 255L349 255L349 257L436 257L436 300L524 300L524 284L611 284L611 280L698 280L698 276L785 276L785 285L873 285L873 292L960 292L960 290L960 0L960 0L873 0L873 0L785 0L785 0L698 0L698 0L611 0L611 0L524 0L524 0L436 0L436 0L349 0L349 0L262 0L262 0L175 0L175 0L87 0L87 0L0 0Z" fill="#d16dda"></path><path d="M0 204L87 204L87 229L175 229L175 237L262 237L262 203L349 203L349 213L436 213L436 247L524 247L524 242L611 242L611 206L698 206L698 218L785 218L785 217L873 217L873 239L960 239L960 238L960 0L960 0L873 0L873 0L785 0L785 0L698 0L698 0L611 0L611 0L524 0L524 0L436 0L436 0L349 0L349 0L262 0L262 0L175 0L175 0L87 0L87 0L0 0Z" fill="#b660d8"></path><path d="M0 159L87 159L87 189L175 189L175 158L262 158L262 156L349 156L349 188L436 188L436 169L524 169L524 160L611 160L611 173L698 173L698 156L785 156L785 185L873 185L873 165L960 165L960 190L960 0L960 0L873 0L873 0L785 0L785 0L698 0L698 0L611 0L611 0L524 0L524 0L436 0L436 0L349 0L349 0L262 0L262 0L175 0L175 0L87 0L87 0L0 0Z" fill="#9755d6"></path><path d="M0 117L87 117L87 131L175 131L175 95L262 95L262 129L349 129L349 99L436 99L436 105L524 105L524 104L611 104L611 122L698 122L698 124L785 124L785 99L873 99L873 133L960 133L960 102L960 0L960 0L873 0L873 0L785 0L785 0L698 0L698 0L611 0L611 0L524 0L524 0L436 0L436 0L349 0L349 0L262 0L262 0L175 0L175 0L87 0L87 0L0 0Z" fill="#734bd4"></path><path d="M0 56L87 56L87 70L175 70L175 50L262 50L262 67L349 67L349 47L436 47L436 49L524 49L524 56L611 56L611 76L698 76L698 59L785 59L785 67L873 67L873 75L960 75L960 64L960 0L960 0L873 0L873 0L785 0L785 0L698 0L698 0L611 0L611 0L524 0L524 0L436 0L436 0L349 0L349 0L262 0L262 0L175 0L175 0L87 0L87 0L0 0Z" fill="#3f44d1"></path></svg>